<svg xmlns="http://www.w3.org/2000/svg" viewBox="0 0 50 50"><defs><style>.cls-1{fill:#fff;}</style></defs><g id="Layer_5" data-name="Layer 5"><polygon class="cls-1" points="23.19 17.74 26.71 20.69 27.51 25.22 25.21 29.2 20.89 30.77 16.57 29.2 14.27 25.22 15.06 20.69 18.59 17.74 23.19 17.74"/><polygon class="cls-1" points="17.82 17.5 14.57 20.23 13.83 16.04 17.82 17.5"/><polygon class="cls-1" points="27.74 16.03 27 20.21 23.75 17.48 27.74 16.03"/><polygon class="cls-1" points="13.65 25.2 10.39 22.47 14.39 21.01 13.65 25.2"/><polygon class="cls-1" points="22.97 17.1 18.72 17.1 20.84 13.42 22.97 17.1"/><polygon class="cls-1" points="31.32 22.08 28.06 24.82 27.32 20.63 31.32 22.08"/><polygon class="cls-1" points="15.85 29.43 11.6 29.43 13.73 25.75 15.85 29.43"/><polygon class="cls-1" points="30.16 29.25 25.91 29.25 28.03 25.57 30.16 29.25"/><polygon class="cls-1" points="20.5 31.34 17.24 34.08 16.5 29.89 20.5 31.34"/><polygon class="cls-1" points="25.25 29.77 24.51 33.95 21.25 31.22 25.25 29.77"/><polygon class="cls-1" points="13.3 19.81 9.85 21.42 7.18 16.56 12.74 15.96 13.3 19.81"/><polygon class="cls-1" points="17.79 16.29 14.15 15.17 15.43 9.78 19.96 13.07 17.79 16.29"/><polygon class="cls-1" points="23.73 16.08 21.67 12.89 26.11 9.58 27.46 15.01 23.73 16.08"/><polygon class="cls-1" points="28.15 19.65 28.63 15.88 34.16 16.22 31.7 21.24 28.15 19.65"/><polygon class="cls-1" points="30.07 25.21 32.98 22.77 36.82 26.76 31.6 28.78 30.07 25.21"/><polygon class="cls-1" points="12.41 25.38 10.76 28.8 5.62 26.73 9.55 22.75 12.41 25.38"/><polygon class="cls-1" points="15.16 30.37 16.3 34 11.13 36 11.28 30.41 15.16 30.37"/><polygon class="cls-1" points="21.04 33.18 24.05 35.5 20.96 40.1 17.88 35.44 21.04 33.18"/><polygon class="cls-1" points="26.09 30.53 29.85 30.05 30.93 35.48 25.44 34.36 26.09 30.53"/><path class="cls-1" d="M27.46,39.77l-2-4.5,6,2.28A14.19,14.19,0,0,1,27.46,39.77Z"/><path class="cls-1" d="M26.29,40.08l-1.78-4.59-2.6,5.82A14.49,14.49,0,0,0,26.29,40.08Z"/><path class="cls-1" d="M36.18,31.54l-4.41-2.2,6-2.05A14.31,14.31,0,0,1,36.18,31.54Z"/><path class="cls-1" d="M35.59,32.36,31.29,30,33,36.1A14.26,14.26,0,0,0,35.59,32.36Z"/><path class="cls-1" d="M37.36,19.69l-4.71,1.45,3-5.65A14.21,14.21,0,0,1,37.36,19.69Z"/><path class="cls-1" d="M37.5,20.6l-4.83,1L38,25.12A14.19,14.19,0,0,0,37.5,20.6Z"/><path class="cls-1" d="M31.1,10.71l-2.94,3.95-1-6.3A14.27,14.27,0,0,1,31.1,10.71Z"/><path class="cls-1" d="M31.66,11.26l-3.11,3.82,6.35-.62A14.11,14.11,0,0,0,31.66,11.26Z"/><path class="cls-1" d="M19.83,7,20,11.91,15.31,7.54A14.32,14.32,0,0,1,19.83,7Z"/><path class="cls-1" d="M21.91,7.09,21.38,12l5-4A14.29,14.29,0,0,0,21.91,7.09Z"/><path class="cls-1" d="M9.28,11.6l3.4,3.55-6.37-.1A14.14,14.14,0,0,1,9.28,11.6Z"/><path class="cls-1" d="M10.08,10.82l3.25,3.7.45-6.36A14.13,14.13,0,0,0,10.08,10.82Z"/><path class="cls-1" d="M3.81,22.13l4.89.54-4.95,4A14.29,14.29,0,0,1,3.81,22.13Z"/><path class="cls-1" d="M4.08,20.86,9,21.61,5.2,16.45A14.37,14.37,0,0,0,4.08,20.86Z"/><path class="cls-1" d="M6.19,32.88l4.31-2.36L8.75,36.64A14.23,14.23,0,0,1,6.19,32.88Z"/><path class="cls-1" d="M5.57,31.76,10,29.58,4,27.5A14.32,14.32,0,0,0,5.57,31.76Z"/><path class="cls-1" d="M15.44,40.28l1.78-4.59,2.6,5.82A14.17,14.17,0,0,1,15.44,40.28Z"/><path class="cls-1" d="M14.39,39.88l2-4.51-6,2.28A14.1,14.1,0,0,0,14.39,39.88Z"/></g></svg>
