<svg width="800" height="600" xmlns="http://www.w3.org/2000/svg">
  <defs>
    <linearGradient id="orgaGrad" x1="0%" y1="0%" x2="100%" y2="100%">
      <stop offset="0%" style="stop-color:#667eea;stop-opacity:0.05" />
      <stop offset="50%" style="stop-color:#764ba2;stop-opacity:0.03" />
      <stop offset="100%" style="stop-color:#f093fb;stop-opacity:0.05" />
    </linearGradient>
    <radialGradient id="circleGrad" cx="50%" cy="50%" r="50%">
      <stop offset="0%" style="stop-color:rgba(255,255,255,0.1);stop-opacity:1" />
      <stop offset="100%" style="stop-color:rgba(255,255,255,0.02);stop-opacity:1" />
    </radialGradient>
  </defs>
  <rect width="800" height="600" fill="url(#orgaGrad)" />
  
  <!-- Background pattern -->
  <circle cx="150" cy="100" r="30" fill="url(#circleGrad)" opacity="0.3"/>
  <circle cx="650" cy="150" r="25" fill="url(#circleGrad)" opacity="0.2"/>
  <circle cx="200" cy="500" r="35" fill="url(#circleGrad)" opacity="0.25"/>
  <circle cx="600" cy="450" r="20" fill="url(#circleGrad)" opacity="0.3"/>
  <circle cx="100" cy="300" r="40" fill="url(#circleGrad)" opacity="0.15"/>
  <circle cx="700" cy="300" r="45" fill="url(#circleGrad)" opacity="0.2"/>
  
  <!-- Geometric lines -->
  <line x1="0" y1="100" x2="800" y2="120" stroke="rgba(255,255,255,0.05)" stroke-width="1"/>
  <line x1="0" y1="200" x2="800" y2="190" stroke="rgba(255,255,255,0.03)" stroke-width="1"/>
  <line x1="0" y1="300" x2="800" y2="310" stroke="rgba(255,255,255,0.04)" stroke-width="1"/>
  <line x1="0" y1="400" x2="800" y2="380" stroke="rgba(255,255,255,0.02)" stroke-width="1"/>
  <line x1="0" y1="500" x2="800" y2="520" stroke="rgba(255,255,255,0.03)" stroke-width="1"/>
  
  <!-- Vertical accent lines -->
  <line x1="150" y1="0" x2="160" y2="600" stroke="rgba(255,255,255,0.02)" stroke-width="1"/>
  <line x1="300" y1="0" x2="290" y2="600" stroke="rgba(255,255,255,0.03)" stroke-width="1"/>
  <line x1="500" y1="0" x2="510" y2="600" stroke="rgba(255,255,255,0.02)" stroke-width="1"/>
  <line x1="650" y1="0" x2="640" y2="600" stroke="rgba(255,255,255,0.04)" stroke-width="1"/>
</svg>
